# xmcd CD database file
#
# Track frame offsets:
#	183
#	11145
#	16808
#	21398
#	33743
#	47265
#	64615
#	80348
#	91740
#	111030
#	128173
#	139343
#
# Disc length: 1998 seconds
#
# Revision: 0
# Processed by: cddbd v1.5.1PL0 Copyright (c) Steve Scherf et al.
# Submitted via: CDex 1.50beta9
#
DISCID=9207cc0c
DTITLE=Larry Cunningham - LIVE
DYEAR=1900
DGENRE=Country
TTITLE0=Come Back To Erin
TTITLE1=Cottage On The borderling
TTITLE2=Among The Wicklow hills
TTITLE3=Lovely Leitrim
TTITLE4=Men Behing The Wire
TTITLE5=Old Fenind Gun
TTITLE6=Slaney Valley
TTITLE7=Pretty Little Girl From Omagh
TTITLE8=Freedom Walk
TTITLE9=Ballad Of James Connelly
TTITLE10=They Wouldn't Do It Now
TTITLE11=90 Years Old
EXTD=
EXTT0=
EXTT1=
EXTT2=
EXTT3=
EXTT4=
EXTT5=
EXTT6=
EXTT7=
EXTT8=
EXTT9=
EXTT10=
EXTT11=
PLAYORDER=
